<?xml version="1.0" standalone="no"?>
<!DOCTYPE svg PUBLIC "-//W3C//DTD SVG 1.1//EN" "http://www.w3.org/Graphics/SVG/1.1/DTD/svg11.dtd" >
<svg xmlns="http://www.w3.org/2000/svg">
<metadata>
This is a custom SVG webfont generated by Font Squirrel.
Copyright   : 2006 Patrick Broderickwwwrotodesigncom
</metadata>
<defs>
<font id="webfontf0ARg0qE" horiz-adv-x="745" >
<font-face units-per-em="2048" ascent="1638" descent="-410" />
<missing-glyph horiz-adv-x="395" />
<glyph unicode=" "  horiz-adv-x="395" />
<glyph unicode="&#x09;" horiz-adv-x="395" />
<glyph unicode="&#xa0;" horiz-adv-x="395" />
<glyph unicode="!" horiz-adv-x="307" d="M25 119q0 -55 39.5 -96t95.5 -41q55 0 96 39.5t41 97.5q0 55 -40 95t-97 40q-55 0 -95 -40t-40 -95zM39 307h244v1036h-244v-1036z" />
<glyph unicode="." horiz-adv-x="307" d="M20 119q0 -55 40 -96t98 -41q55 0 95 39.5t40 97.5q0 55 -40 95t-95 40t-96.5 -40t-41.5 -95z" />
<glyph unicode="0" horiz-adv-x="669" d="M45 754l2 -490q2 -113 87 -192.5t200 -79.5q121 0 207 83t86 199l2 478q2 117 -84 200.5t-209 83.5h2q-121 0 -207 -82.5t-86 -199.5zM303 745q0 35 37 31q33 0 33 -33l-2 -460q0 -33 -31 -33q-35 0 -35 33z" />
<glyph unicode="1" horiz-adv-x="323" d="M49 -4h246v1034h-246v-1034z" />
<glyph unicode="2" horiz-adv-x="659" d="M47 -6h582v246h-291q0 37 45 104h-2q27 39 106 133l82 94q61 88 62 181q0 119 -85 201.5t-206 82.5t-208 -83t-85 -199l2 -101h256v80l-2 12q0 35 37 31q33 0 33 -33l-2 -10q0 -53 -52.5 -105.5t-78.5 -84.5q-49 -59 -99 -142q-61 -102 -82 -161q-12 -35 -12 -119v-127z " />
<glyph unicode="3" horiz-adv-x="659" d="M41 276q0 -119 85 -201.5t206 -82.5t208 83t85 199l-2 101q-2 70 -62 139q63 80 64 152v86q0 119 -85 201.5t-204 82.5q-123 0 -210 -83t-85 -199l2 -101h256v92q0 35 35 31q33 0 33 -33v-75q0 -47 -33 -47h-80v-213h78q35 0 35 -46v-67l2 -10q0 -33 -37 -33 q-33 0 -33 33v77h-258v-86z" />
<glyph unicode="4" horiz-adv-x="741" d="M31 170h340v-174h245v174h86v246h-86v614h-331l-254 -659v-201zM279 416l92 239v-239h-92z" />
<glyph unicode="5" horiz-adv-x="659" d="M45 276q0 -119 85 -201.5t206 -82.5t207 83t86 199v117q0 129 -88 197q-66 51 -146 49q-49 0 -92 -16v163h299v246h-557v-608h258v10q0 33 33 33q35 0 35 -33v-147q0 -33 -35 -33q-33 0 -33 33v61h-258v-70z" />
<glyph unicode="6" horiz-adv-x="659" d="M43 276q-2 -117 84 -200.5t209 -83.5h-2q121 0 206 83t87 199l2 117q2 129 -86 197q-68 51 -148 49q-47 0 -94 -16v114l2 10q0 33 33 33q35 0 35 -33v-77h256v96q0 113 -86 192.5t-203 79.5q-121 0 -207 -83t-86 -199zM299 285v75l2 11q0 33 33 32q35 0 35 -30v-88 q0 -33 -37 -33q-33 0 -33 33z" />
<glyph unicode="7" horiz-adv-x="606" d="M37 -4h244l317 1034h-557v-246h238z" />
<glyph unicode="8" horiz-adv-x="669" d="M45 276q0 -119 85 -201.5t204 -82.5q123 0 211 84t84 198l-4 101q-2 70 -60 139q63 80 64 152v86q0 119 -85 201.5t-206 82.5t-208 -83t-85 -199l2 -101q2 -70 62 -139q-63 -80 -64 -152v-86zM301 743q0 33 35 33l2 -2q33 0 33 -33v-86l-2 -4q0 -33 -31 -33q-35 0 -35 33 v80zM305 281v90q0 33 33 32q35 0 35 -32v-90q0 -33 -35 -33q-33 0 -33 33z" />
<glyph unicode="9" horiz-adv-x="669" d="M49 637q0 -129 88 -197q66 -51 144 -49q47 0 94 17v-125q0 -33 -33 -33q-35 0 -35 33v77h-256v-96q0 -113 86 -192.5t203 -79.5q121 0 207 83t86 199v478q0 119 -86 201.5t-207 82.5h2q-121 0 -207 -83t-86 -199v-117zM307 745q0 35 37 31q33 0 33 -33v-86q0 -33 -35 -32 h2q-35 0 -35 30v78z" />
<glyph unicode="A" horiz-adv-x="921" d="M18 -2h295l37 278h217l37 -278h293l-240 1432h-397zM387 565l72 543l69 -543h-141z" />
<glyph unicode="B" d="M33 -2l356 -2q139 0 238.5 99.5t99.5 238.5v174q0 184 -158 285l2 -2q154 98 150 251l-2 86q-2 117 -98.5 209.5t-231.5 92.5h-356v-1432zM330 289v291h51q16 0 28.5 -18.5t12.5 -37.5v-180h-2q0 -18 -12.5 -36.5t-28.5 -18.5h-49zM330 872v291l51 2q16 0 28.5 -18.5 t12.5 -38.5l-2 -180q0 -18 -12.5 -37t-28.5 -19h-49z" />
<glyph unicode="C" d="M35 309q0 -139 99 -239.5t239 -100.5q139 0 238.5 99.5t99.5 238.5v262h-295v-237q0 -41 -45 -41q-41 0 -41 41l2 766q0 41 43 41q41 0 41 -41v-199h295v213q0 139 -98.5 239.5t-237.5 100.5t-238.5 -99.5t-99.5 -238.5z" />
<glyph unicode="D" d="M39 -2l336 -2q139 0 238.5 99.5t99.5 238.5v758q0 139 -99.5 238.5t-238.5 99.5h-336v-1432zM334 291v848l43 2q16 0 28.5 -18.5t12.5 -39.5v-737q0 -18 -13.5 -36.5t-29.5 -18.5h-41z" />
<glyph unicode="E" horiz-adv-x="632" d="M45 -2h571v301h-258v279h195v303h-195v245h258v301l-571 3v-1432z" />
<glyph unicode="F" horiz-adv-x="632" d="M31 -2h313v580h195v303h-195v245h258v301l-571 3v-1432z" />
<glyph unicode="G" d="M41 309q0 -139 98.5 -239.5t237.5 -100.5t238.5 99.5t99.5 238.5v434h-340v-303h45v-106q0 -41 -43 -41q-41 0 -41 41v766q0 41 43 41q41 0 41 -41v-197h295v211q0 139 -98.5 239.5t-237.5 100.5t-238.5 -99.5t-99.5 -238.5v-805z" />
<glyph unicode="H" horiz-adv-x="784" d="M41 -2h301v563h115v-563h303v1432h-303v-549h-115v549h-301v-1432z" />
<glyph unicode="I" horiz-adv-x="372" d="M33 -2h315v1432h-315v-1432z" />
<glyph unicode="J" horiz-adv-x="557" d="M43 -2h145q336 0 336 338v1094h-295v-1084q0 -55 -57 -55h-129v-293z" />
<glyph unicode="K" horiz-adv-x="833" d="M51 -2h307v602l166 -602h307l-229 770l197 659h-307l-134 -481v481h-307v-1429z" />
<glyph unicode="L" horiz-adv-x="598" d="M39 -2zM39 -2h541v315h-226v1114h-315v-1429z" />
<glyph unicode="M" horiz-adv-x="1058" d="M33 -2h274v745l103 -745h245l103 745v-745h274v1429h-428l-72 -651l-71 651h-428v-1429z" />
<glyph unicode="N" horiz-adv-x="833" d="M33 -2h286v598l162 -598h324v1429h-289v-598l-160 598h-323v-1429z" />
<glyph unicode="O" horiz-adv-x="737" d="M31 309q0 -139 98 -239.5t238 -100.5q139 0 238.5 99.5t99.5 238.5l2 805q0 139 -98.5 239.5t-237.5 100.5t-238.5 -99.5t-99.5 -238.5zM328 332l2 766q0 41 43 41q41 0 41 -41v-766h-2q0 -41 -43 -41q-41 0 -41 41z" />
<glyph unicode="P" horiz-adv-x="741" d="M37 -2v1432l336 2q137 0 237.5 -111t100.5 -254v-86q0 -154 -88 -274q-100 -135 -250 -136h-43v-573h-293zM330 862h45q16 0 28.5 18.5t12.5 39.5v163q0 18 -13.5 37t-29.5 19h-43v-277z" />
<glyph unicode="Q" horiz-adv-x="741" d="M35 1112q0 139 98 239.5t238 100.5q139 0 238.5 -99.5t99.5 -238.5l2 -786q0 -115 -72 -207l113 -187h-340l-25 56h-12q-139 0 -238.5 99t-99.5 239zM330 1098l2 -766q0 -41 43 -41q41 0 41 41v766q0 41 -45 41q-41 0 -41 -41z" />
<glyph unicode="R" horiz-adv-x="753" d="M29 -2v1432h356q135 0 231.5 -91.5t98.5 -208.5l2 -135q2 -156 -152 -247q88 -27 121 -82q37 -63 37 -211v-367q0 -18 4 -35q8 -39 29 -55h-310q-31 31 -32 117v413q0 18 -12.5 37t-28.5 19h-49v-586h-295zM324 874h49q16 0 28.5 18.5t12.5 39.5v180q0 18 -12.5 36.5 t-28.5 18.5h-49v-293z" />
<glyph unicode="S" d="M45 307q0 -139 98.5 -238.5t237.5 -99.5t238.5 98.5t99.5 237.5q0 186 -19 242q-25 80 -141 196q-127 127 -145 150q-74 92 -74 178q0 68 43 68q41 0 41 -43v-140h295v156q0 139 -98.5 239.5t-237.5 100.5t-238.5 -99.5t-99.5 -238.5q0 -162 29 -235q33 -92 157 -217 l142 -138q51 -61 51 -162v-2q0 -70 -41 -69h-2q-41 2 -41 41v139h-295v-164z" />
<glyph unicode="T" d="M43 1102h178v-1106h316v1106h180v330h-674v-330z" />
<glyph unicode="U" d="M37 307q0 -139 98 -238.5t238 -99.5q139 0 238.5 99.5t99.5 238.5v1123h-293l-2 -1100q0 -39 -39 -39h-4q-41 2 -41 41v1098h-295v-1123z" />
<glyph unicode="V" horiz-adv-x="845" d="M12 1430l164 -1432h449l215 1432h-308l-118 -1039l-95 1039h-307z" />
<glyph unicode="W" horiz-adv-x="1167" d="M20 1432l119 -1432h367l88 721l86 -721h367l120 1432h-295l-47 -719l-84 719h-297l-84 -719l-47 719h-293z" />
<glyph unicode="X" horiz-adv-x="903" d="M27 -4h313l121 319l121 -319h313l-277 733l265 698h-316l-106 -282l-107 282h-315l264 -698z" />
<glyph unicode="Y" horiz-adv-x="903" d="M41 1427l260 -733v-698h315v698l261 733h-316l-102 -387l-103 387h-315z" />
<glyph unicode="Z" horiz-adv-x="684" d="M20 -4h644v315h-342l342 877v239h-623v-313h278l-299 -803v-315z" />
<glyph unicode="a" horiz-adv-x="606" d="M51 238q0 -131 48 -190q46 -56 154 -56h7q31 0 80 18v-14h227v782q0 109 -74.5 183.5t-183.5 74.5t-183.5 -74.5t-74.5 -183.5v-153h228v145q0 31 30 31q31 0 31 -31v-203h-57q-96 0 -164 -68.5t-68 -164.5v-96zM279 236v86q0 31 30 30h31v-145h-31q-30 0 -30 29z" />
<glyph unicode="b" horiz-adv-x="638" d="M47 -4h246l2 43q43 -45 123 -49q66 0 119 45q61 53 61 141v672q0 88 -61 143q-53 45 -119 45h-2q-23 0 -43 -6q-51 -12 -80 -43v354h-246v-1345zM289 770q0 31 30 31q31 0 31 -31l2 -512q0 -31 -30 -31q-31 0 -31 29z" />
<glyph unicode="c" horiz-adv-x="638" d="M61 778l2 -78v-462q0 -102 77 -174t182 -72q109 0 183.5 75.5t74.5 182.5v131h-230v-115l2 -8q0 -31 -30 -31q-31 0 -31 29l-2 514q0 31 30 31q31 0 31 -31v-199h230v129l-2 78q-2 109 -76 183.5t-180 74.5q-109 0 -186 -76t-75 -182z" />
<glyph unicode="d" horiz-adv-x="638" d="M41 178q0 -88 61 -143q53 -45 121 -45q23 2 43 6q51 12 80 45v-45h246v1345h-246l-2 -354q-37 37 -123 51q-66 0 -119 -45q-61 -55 -61 -143v-672zM285 772q0 31 30 31q31 0 31 -31v-514q0 -27 -29 -31q-31 0 -30 31z" />
<glyph unicode="e" horiz-adv-x="581" d="M41 238q0 -102 77 -174t181 -72q109 0 183.5 75.5t74.5 182.5v112h-229v-96l2 -8q0 -31 -31 -31t-31 29v186h289l-2 336q0 106 -74.5 182t-181.5 76q-109 0 -183.5 -74.5t-74.5 -183.5v-540zM268 653v117q0 31 29 31q31 0 31 -31v-117h-60z" />
<glyph unicode="f" horiz-adv-x="458" d="M35 786h67v-790h246v790h70v246l-70 -2q0 78 68 78h59v233h-110q-18 0 -21 2q-242 0 -242 -311h-67v-246z" />
<glyph unicode="g" horiz-adv-x="614" d="M35 176q0 -88 61 -143q53 -45 121 -45q23 2 45 6q49 12 80 45v-45q0 -59 -11.5 -79.5t-56.5 -20.5h-120v-234h190q242 0 242 346v1022h-244l-2 -43q-37 37 -123 51q-66 0 -119 -45q-61 -55 -61 -143q0 -416 -2 -672zM281 256v512q0 31 30 31q31 0 31 -29v-514 q0 -29 -31 -33q-30 0 -30 33z" />
<glyph unicode="h" horiz-adv-x="630" d="M47 -4v1345h244l2 -354q37 37 123 51q66 0 119 -45q61 -55 61 -143v-854h-244v774q0 31 -30 31q-31 0 -31 -31v-774h-244z" />
<glyph unicode="i" horiz-adv-x="323" d="M35 1221q0 -55 40 -95.5t95 -40.5t96 40t41 96q0 55 -40 95t-97 40v2q-55 0 -95 -40t-40 -97zM47 -4h244v1034h-244v-1034z" />
<glyph unicode="j" horiz-adv-x="368" d="M-78 -66v-233h152q242 0 241 346v1024h-245v-1036q0 -100 -68 -101h-80zM57 1262q0 -55 40 -96.5t96 -41.5q55 0 96 40t41 98q0 55 -40 95t-97 40q-55 0 -95.5 -40t-40.5 -95z" />
<glyph unicode="k" horiz-adv-x="665" d="M33 37h246v377l139 -377h244l-209 532l196 502h-246l-124 -342v653h-246v-1345z" />
<glyph unicode="l" horiz-adv-x="315" d="M39 -4h246v1345h-246v-1345z" />
<glyph unicode="m" horiz-adv-x="886" d="M39 37h231v772q0 29 31 33q31 0 31 -31v-774h231v772q0 29 29 33q31 0 31 -31v-774h231v696q0 158 2 156q0 88 -61 143q-53 45 -121 45q-90 0 -146 -76q-55 76 -147 76q-23 -2 -43 -6q-45 -12 -68 -45v45h-231v-1034z" />
<glyph unicode="n" horiz-adv-x="610" d="M33 -4h243v774q0 29 31 29t31 -31v-772h244l2 850q0 88 -62 143q-53 45 -121 45q-23 0 -43 -6q-51 -12 -82 -43v43h-243v-1032z" />
<glyph unicode="o" horiz-adv-x="610" d="M49 238q0 -102 77 -174t181 -72q109 0 183.5 75.5t74.5 182.5l-2 528q-2 109 -75.5 183.5t-180.5 74.5q-109 0 -183.5 -74.5t-74.5 -183.5v-540zM276 256v514q0 31 29 31q31 0 31 -31l2 -512q0 -31 -31 -31t-31 29z" />
<glyph unicode="p" horiz-adv-x="643" d="M49 -317h244l2 354q43 -45 123 -49q66 0 119 45q61 53 61 141l2 672q0 88 -61 143q-53 45 -121 45q-23 0 -43 -6q-51 -12 -82 -43v43h-244v-1345zM295 254v514q0 29 31 29t30 -31v-512q0 -29 -30 -33q-31 0 -31 33z" />
<glyph unicode="q" horiz-adv-x="643" d="M55 176q0 -88 62 -143q53 -45 119 -45h2q23 2 43 6q51 12 79 45v-356h246v1345h-246l-2 -43q-37 37 -122 51q-66 0 -119 -45q-61 -55 -62 -143v-672zM301 768q0 31 31 31t30 -29l3 -514q0 -29 -31 -33q-31 0 -31 33z" />
<glyph unicode="r" horiz-adv-x="438" d="M39 -4h244v729q0 53 108 53h17v256q-23 0 -43 -6q-51 -12 -82 -43v43h-244v-1032z" />
<glyph unicode="s" horiz-adv-x="589" d="M43 238q0 -102 77 -174t181 -72q109 0 183.5 74.5t74.5 181.5v41q0 133 -80 213l-168 172q-41 41 -41 88v8q0 31 31 31t31 -31v-70h227v78q0 109 -74.5 183.5t-183.5 74.5t-183.5 -74.5t-74.5 -183.5v-76q0 -72 100 -182l144 -141q47 -50 46 -96q0 -8 -1 -17v-8 q0 -31 -31 -31t-31 29v104h-227v-122z" />
<glyph unicode="t" horiz-adv-x="419" d="M29 793h57v-797h246v797h59v237h-59v252l-246 -33v-219h-57v-237z" />
<glyph unicode="u" horiz-adv-x="630" d="M47 180q0 -88 62 -143q53 -45 120 -45q23 0 45 6q49 12 80 43v-43h244v1032h-244v-774q0 -29 -30 -29q-31 0 -31 31v772h-244z" />
<glyph unicode="v" horiz-adv-x="690" d="M8 1030l193 -1034h282l193 1034h-232l-102 -567l-102 567h-232z" />
<glyph unicode="w" horiz-adv-x="915" d="M8 1030l115 -1034h264l72 481l73 -481h265l114 1034h-231l-25 -276l-14 -226l-31 226l-49 276h-203l-49 -276l-30 -226l-17 226l-22 276h-232z" />
<glyph unicode="x" horiz-adv-x="675" d="M12 -4h232l102 266l100 -266h232l-219 565l178 469h-223l-68 -174l-70 174h-223l178 -469z" />
<glyph unicode="y" horiz-adv-x="614" d="M41 176v854h244v-772q0 -29 30 -33q31 0 31 31v774h244v-1345h-244l-2 354q-43 -45 -123 -49q-66 0 -119 45q-61 53 -61 141z" />
<glyph unicode="z" horiz-adv-x="550" d="M37 -4v231l242 572h-242v231h483v-231l-239 -572h239v-231h-483z" />
<glyph unicode="&#x2000;" horiz-adv-x="819" />
<glyph unicode="&#x2001;" horiz-adv-x="1638" />
<glyph unicode="&#x2002;" horiz-adv-x="819" />
<glyph unicode="&#x2003;" horiz-adv-x="1638" />
<glyph unicode="&#x2004;" horiz-adv-x="544" />
<glyph unicode="&#x2005;" horiz-adv-x="409" />
<glyph unicode="&#x2006;" horiz-adv-x="272" />
<glyph unicode="&#x2007;" horiz-adv-x="272" />
<glyph unicode="&#x2008;" horiz-adv-x="204" />
<glyph unicode="&#x2009;" horiz-adv-x="327" />
<glyph unicode="&#x200a;" horiz-adv-x="90" />
<glyph unicode="&#x2013;" horiz-adv-x="1024" d="M205 512v205h614v-205h-614z" />
<glyph unicode="&#x2014;" horiz-adv-x="2048" d="M205 512v205h1638v-205h-1638z" />
<glyph unicode="&#x2026;" horiz-adv-x="921" d="M634 119q0 -55 40 -96t98 -41q55 0 95 39.5t40 97.5q0 55 -40 95t-95 40t-96.5 -40t-41.5 -95zM327 119q0 -55 40 -96t98 -41q55 0 95 39.5t40 97.5q0 55 -40 95t-95 40t-96.5 -40t-41.5 -95zM20 119q0 -55 40 -96t98 -41q55 0 95 39.5t40 97.5q0 55 -40 95t-95 40 t-96.5 -40t-41.5 -95z" />
<glyph unicode="&#x202f;" horiz-adv-x="327" />
<glyph unicode="&#x205f;" horiz-adv-x="409" />
<glyph unicode="&#x2122;" horiz-adv-x="1804" d="M778 -2h274v745l103 -745h245l103 745v-745h274v1429h-428l-72 -651l-71 651h-428v-1429zM43 1102h178v-1106h316v1106h180v330h-674v-330z" />
<glyph unicode="&#xe000;" horiz-adv-x="1030" d="M0 1030h1030v-1030h-1030v1030z" />
<glyph unicode="&#xfb01;" horiz-adv-x="782" d="M494 1221q0 -55 40 -95.5t95 -40.5t96 40t41 96q0 55 -40 95t-97 40v2q-55 0 -95 -40t-40 -97zM506 -4h244v1034h-244v-1034zM35 786h67v-790h246v790h70v246l-70 -2q0 78 68 78h59v233h-110q-18 0 -21 2q-242 0 -242 -311h-67v-246z" />
<glyph unicode="&#xfb02;" horiz-adv-x="774" d="M498 -4h246v1345h-246v-1345zM35 786h67v-790h246v790h70v246l-70 -2q0 78 68 78h59v233h-110q-18 0 -21 2q-242 0 -242 -311h-67v-246z" />
<glyph unicode="&#xfb03;" horiz-adv-x="1241" d="M953 1221q0 -55 40 -95.5t95 -40.5t96 40t41 96q0 55 -40 95t-97 40v2q-55 0 -95 -40t-40 -97zM965 -4h244v1034h-244v-1034zM494 786h67v-790h246v790h70v246l-70 -2q0 78 68 78h59v233h-110q-18 0 -21 2q-242 0 -242 -311h-67v-246zM35 786h67v-790h246v790h70v246 l-70 -2q0 78 68 78h59v233h-110q-18 0 -21 2q-242 0 -242 -311h-67v-246z" />
<glyph unicode="&#xfb04;" horiz-adv-x="1232" d="M957 -4h246v1345h-246v-1345zM494 786h67v-790h246v790h70v246l-70 -2q0 78 68 78h59v233h-110q-18 0 -21 2q-242 0 -242 -311h-67v-246zM35 786h67v-790h246v790h70v246l-70 -2q0 78 68 78h59v233h-110q-18 0 -21 2q-242 0 -242 -311h-67v-246z" />
</font>
</defs>
</svg>
